<svg xmlns="http://www.w3.org/2000/svg" version="1.1" xmlns:xlink="http://www.w3.org/1999/xlink" xmlns:svgjs="http://svgjs.dev/svgjs" viewBox="0 0 800 800"><defs><linearGradient x1="50%" y1="0%" x2="50%" y2="100%" id="ccchaos-grad"><stop stop-color="hsl(206, 75%, 49%)" stop-opacity="1" offset="0%"></stop><stop stop-color="hsl(331, 90%, 56%)" stop-opacity="1" offset="100%"></stop></linearGradient></defs><g stroke-width="2" stroke="url(#ccchaos-grad)" fill="none" stroke-linecap="round"><path d="M388.22 110.13C397.82 107.97 407.52 106.47 417.33 105.66 427.17 105.09 437.14 105.27 447.23 106.2 457.37 107.43 467.67 109.43 478.12 112.16 488.65 115.21 499.35 118.98 510.18 123.41 521.09 128.11 532.13 133.43 543.23 139.3 554.34 145.37 565.43 151.93 576.4 158.91 587.22 166 597.76 173.45 607.86 181.21 617.56 189 626.61 197.04 634.81 205.3 642.33 213.51 648.79 221.91 654.03 230.46 658.39 238.93 661.43 247.55 663.08 256.28 663.89 264.92 663.43 273.69 661.8 282.57 659.73 291.36 656.88 300.29 653.48 309.34 650.38 318.33 647.32 327.46 644.61 336.73 643.03 345.96 642.33 355.36 642.72 364.91 644.79 374.44 648.14 384.15 652.74 394.04 658.87 403.91 665.93 413.97 673.58 424.21 681.85 434.44 689.72 444.6 696.78 454.66 703.24 464.72 708.15 474.67 711.29 484.46 713.02 494.24 712.68 503.83 710.3 513.2 706.39 522.52 700.63 531.56 693.25 540.28 684.79 548.9 675.18 557.14 664.74 564.94 653.94 572.58 642.8 579.72 631.58 586.31 620.63 592.69 609.93 598.48 599.64 603.62 589.97 608.52 580.81 612.77 572.18 616.34 564.24 619.7 556.75 622.41 549.65 624.5 543.12 626.48 536.81 627.93 530.62 628.89 524.8 629.94 518.93 630.65 512.92 631.12 507.1 631.91 501 632.64 494.59 633.39 488.22 634.72 481.45 636.26 474.27 638.06 467.07 640.62 459.42 643.54 451.32 646.85 443.19 650.94 434.62 655.38 425.62 660.11 416.61 665.45 407.18 670.91 397.37 676.32 387.56 681.99 377.62 687.19 367.61 691.79 357.63 696.19 347.6 699.71 337.57 702.25 327.6 704.27 317.66 705.14 307.81 704.86 298.05 703.88 288.41 701.71 278.97 698.39 269.65 694.4 260.56 689.34 251.77 683.32 243.15 676.76 234.87 669.39 226.99 661.33 219.33 652.93 212.1 644 205.35 634.66 198.83 625.18 192.8 615.43 187.29 605.49 181.96 595.58 177.13 585.56 172.79 575.53 168.54 565.6 164.71 555.68 161.3 545.8 157.83 536.07 154.68 526.39 151.82 516.76 148.77 507.27 145.91 497.81 143.23 488.39 140.25 479.07 137.39 469.75 134.67 460.42 131.62 451.17 128.71 441.87 125.97 432.55 122.98 423.25 120.24 413.89 117.81 404.48 115.3 395.08 113.22 385.62 111.66 376.1 110.22 366.58 109.46 357.23 109.41 348.08 109.64 338.93 110.63 329.98 112.38 321.26 114.47 312.55 117.31 304.09 120.85 295.9 124.68 287.73 129.15 279.86 134.18 272.3 139.37 264.78 145.03 257.58 151.08 250.75 157.13 243.95 163.46 237.51 170.01 231.44 176.41 225.4 182.96 219.72 189.62 214.42 196.04 209.1 202.54 204.13 209.11 199.51 215.41 194.81 221.8 190.42 228.29 186.32 234.54 182.09 240.92 178.09 247.46 174.33 253.82 170.35 260.39 166.55 267.18 162.91 273.85 159.01 280.79 155.23 288 151.58 295.15 147.64 302.6 143.82 310.36 140.14 318.07 136.18 326.11 132.39 334.46 128.81 342.79 125.04 351.43 121.55 360.4 118.39 369.35 115.18 378.62 112.4 388.21 110.13" stroke-dasharray="7 9" transform="rotate(0, 400, 400)" opacity="0.50"></path><path d="M393.33 121.02C402.67 118.87 412.15 117.37 421.74 116.53 431.36 115.9 441.12 115.99 451.01 116.79 460.94 117.88 471.03 119.7 481.24 122.22 491.5 125.04 501.9 128.55 512.38 132.7 522.9 137.12 533.47 142.14 544.02 147.69 554.52 153.45 564.91 159.69 575.09 166.36 585.05 173.15 594.65 180.31 603.72 187.79 612.37 195.31 620.3 203.1 627.37 211.11 633.79 219.11 639.16 227.3 643.39 235.65 646.83 243.94 649.07 252.38 650.07 260.95 650.39 269.44 649.62 278.05 647.86 286.78 645.84 295.43 643.19 304.21 640.16 313.09 637.52 321.92 635 330.87 632.87 339.95 631.84 348.99 631.63 358.17 632.44 367.48 634.76 376.77 638.24 386.21 642.82 395.79 648.77 405.36 655.51 415.08 662.77 424.92 670.59 434.77 678.04 444.52 684.75 454.13 690.94 463.74 695.75 473.2 698.95 482.48 700.92 491.74 701 500.79 699.21 509.58 696.02 518.32 691.08 526.77 684.58 534.88 677.04 542.89 668.32 550.51 658.71 557.68 648.64 564.72 638.11 571.26 627.37 577.28 616.74 583.1 606.21 588.37 595.94 593.03 586.14 597.5 576.73 601.36 567.76 604.61 559.38 607.71 551.41 610.23 543.81 612.2 536.73 614.12 529.91 615.58 523.27 616.62 516.99 617.79 510.75 618.68 504.46 619.37 498.38 620.4 492.13 621.4 485.65 622.44 479.27 624.02 472.57 625.8 465.53 627.82 458.51 630.52 451.11 633.56 443.33 636.92 435.54 640.98 427.35 645.34 418.78 649.93 410.19 655.07 401.23 660.28 391.92 665.43 382.61 670.82 373.19 675.76 363.72 680.12 354.26 684.33 344.78 687.72 335.32 690.21 325.9 692.24 316.54 693.23 307.29 693.14 298.12 692.43 289.1 690.62 280.28 687.74 271.59 684.24 263.14 679.73 254.99 674.31 247.01 668.37 239.38 661.63 232.14 654.21 225.09 646.44 218.46 638.12 212.3 629.37 206.32 620.45 200.81 611.21 195.78 601.75 190.9 592.25 186.46 582.63 182.47 572.93 178.53 563.3 174.97 553.64 171.77 544 168.48 534.46 165.47 524.95 162.71 515.48 159.74 506.12 156.93 496.8 154.28 487.51 151.32 478.31 148.47 469.13 145.73 459.96 142.68 450.86 139.75 441.74 136.99 432.62 133.99 423.53 131.22 414.41 128.76 405.27 126.21 396.14 124.09 386.98 122.47 377.8 120.96 368.62 120.12 359.65 119.97 350.88 120.09 342.12 120.96 333.57 122.56 325.27 124.5 316.98 127.17 308.94 130.54 301.18 134.2 293.43 138.49 285.97 143.35 278.83 148.39 271.71 153.89 264.9 159.8 258.44 165.74 252 171.98 245.89 178.45 240.14 184.81 234.39 191.34 228.97 197.99 223.91 204.44 218.8 210.97 214.01 217.57 209.54 223.93 204.98 230.37 200.69 236.89 196.67 243.18 192.5 249.58 188.54 256.11 184.79 262.45 180.83 268.97 177.03 275.68 173.39 282.25 169.48 289.06 165.7 296.12 162.04 303.08 158.11 310.33 154.29 317.85 150.62 325.33 146.7 333.11 142.95 341.19 139.41 349.24 135.7 357.61 132.26 366.3 129.15 374.97 126 383.98 123.26 393.32 121.02" stroke-dasharray="4 11" transform="rotate(4.04, 400, 400)" opacity="0.73"></path><path d="M398.86 131.91C407.94 129.79 417.17 128.28 426.51 127.4 435.88 126.73 445.38 126.73 455 127.41 464.65 128.36 474.43 130 484.3 132.32 494.2 134.91 504.19 138.17 514.2 142.04 524.2 146.17 534.19 150.88 544.08 156.11 553.87 161.55 563.47 167.47 572.77 173.81 581.82 180.28 590.43 187.13 598.46 194.29 606.05 201.52 612.91 209.02 618.9 216.76 624.29 224.51 628.69 232.45 632.02 240.56 634.68 248.65 636.25 256.88 636.73 265.24 636.7 273.54 635.74 281.97 633.96 290.5 632.07 298.98 629.7 307.58 627.07 316.26 624.91 324.91 622.92 333.66 621.34 342.52 620.82 351.35 621.08 360.29 622.24 369.33 624.8 378.37 628.36 387.52 632.9 396.77 638.65 406.02 645.09 415.38 651.96 424.83 659.35 434.29 666.38 443.6 672.73 452.76 678.65 461.91 683.33 470.89 686.58 479.66 688.73 488.4 689.18 496.91 687.92 505.15 685.39 513.33 681.22 521.2 675.57 528.73 668.92 536.15 661.09 543.19 652.33 549.79 643.05 556.27 633.21 562.27 623.04 567.76 612.85 573.1 602.62 577.91 592.52 582.16 582.75 586.26 573.25 589.81 564.09 592.8 555.41 595.7 547.08 598.08 539.09 599.98 531.57 601.88 524.3 603.38 517.24 604.53 510.54 605.84 503.93 606.92 497.34 607.85 490.97 609.11 484.52 610.36 477.93 611.66 471.45 613.48 464.75 615.47 457.79 617.67 450.87 620.51 443.65 623.62 436.12 627.01 428.59 631.03 420.72 635.3 412.53 639.74 404.33 644.67 395.8 649.65 386.98 654.55 378.15 659.65 369.24 664.33 360.3 668.47 351.38 672.48 342.45 675.74 333.56 678.17 324.72 680.2 315.96 681.27 307.32 681.35 298.76 680.89 290.37 679.41 282.19 676.93 274.13 673.89 266.33 669.9 258.83 665.04 251.48 659.69 244.48 653.57 237.86 646.78 231.4 639.64 225.35 631.94 219.74 623.79 214.28 615.45 209.25 606.76 204.66 597.81 200.18 588.79 196.09 579.6 192.41 570.3 188.74 561.03 185.4 551.69 182.37 542.34 179.24 533.06 176.33 523.79 173.64 514.54 170.73 505.38 167.95 496.24 165.3 487.14 162.36 478.11 159.5 469.1 156.75 460.13 153.69 451.2 150.74 442.28 147.96 433.39 144.95 424.52 142.16 415.64 139.67 406.78 137.11 397.92 134.94 389.07 133.27 380.23 131.71 371.38 130.8 362.76 130.55 354.36 130.56 345.97 131.3 337.81 132.76 329.9 134.54 322 137.04 314.35 140.22 306.98 143.69 299.62 147.79 292.55 152.45 285.78 157.3 279.02 162.64 272.57 168.38 266.45 174.17 260.32 180.29 254.51 186.66 249.04 192.95 243.54 199.43 238.35 206.05 233.49 212.49 228.56 219.04 223.93 225.66 219.58 232.07 215.13 238.55 210.92 245.11 206.96 251.45 202.84 257.89 198.91 264.43 195.17 270.79 191.22 277.3 187.42 283.96 183.77 290.49 179.86 297.22 176.08 304.16 172.41 311.01 168.5 318.1 164.7 325.45 161.05 332.74 157.17 340.32 153.47 348.18 149.97 356 146.33 364.13 142.95 372.58 139.9 381 136.8 389.76 134.12 398.85 131.91" stroke-dasharray="3 6" transform="rotate(8.08, 400, 400)" opacity="0.87"></path><path d="M404.45 142.79C413.28 140.71 422.23 139.2 431.28 138.3 440.36 137.58 449.55 137.5 458.83 138.06 468.13 138.88 477.52 140.35 486.96 142.46 496.4 144.83 505.87 147.84 515.31 151.43 524.71 155.27 534.02 159.67 543.17 164.58 552.17 169.69 560.92 175.27 569.29 181.26 577.4 187.4 585.01 193.91 592.02 200.75 598.6 207.66 604.45 214.85 609.45 222.28 613.91 229.75 617.45 237.42 620.01 245.26 622.01 253.09 623.06 261.08 623.16 269.19 622.89 277.28 621.85 285.48 620.16 293.79 618.46 302.06 616.42 310.43 614.23 318.89 612.54 327.32 611.08 335.85 610.03 344.46 609.98 353.04 610.65 361.72 612.14 370.48 614.88 379.23 618.51 388.07 622.98 396.99 628.53 405.9 634.67 414.89 641.16 423.94 648.11 432.98 654.73 441.87 660.74 450.57 666.38 459.26 670.92 467.75 674.16 476.02 676.46 484.25 677.23 492.24 676.43 499.93 674.51 507.58 671.06 514.91 666.21 521.88 660.41 528.76 653.46 535.26 645.56 541.34 637.1 547.3 628.01 552.81 618.49 557.84 608.84 562.75 599.05 567.16 589.25 571.07 579.65 574.86 570.21 578.16 561.01 580.96 552.18 583.7 543.64 586 535.38 587.87 527.52 589.79 519.9 591.36 512.5 592.65 505.43 594.1 498.48 595.38 491.61 596.54 484.96 598.03 478.29 599.52 471.55 601.06 464.95 603.08 458.2 605.26 451.27 607.63 444.4 610.57 437.3 613.74 429.96 617.14 422.64 621.1 415.05 625.26 407.2 629.55 399.34 634.28 391.22 639.02 382.84 643.66 374.47 648.49 366.05 652.91 357.63 656.83 349.24 660.64 340.86 663.76 332.55 666.12 324.29 668.14 316.12 669.27 308.1 669.51 300.16 669.26 292.39 668.07 284.85 665.96 277.42 663.34 270.24 659.84 263.38 655.51 256.65 650.73 250.24 645.21 244.22 639.03 238.32 632.51 232.81 625.44 227.71 617.89 222.71 610.14 218.12 602.02 213.92 593.62 209.79 585.12 206.01 576.41 202.59 567.55 199.14 558.69 195.98 549.74 193.1 540.74 190.07 531.78 187.24 522.79 184.6 513.82 181.72 504.91 178.95 496.01 176.3 487.14 173.35 478.33 170.48 469.55 167.7 460.8 164.63 452.09 161.68 443.4 158.88 434.75 155.86 426.12 153.07 417.51 150.56 408.93 147.98 400.36 145.79 391.8 144.08 383.29 142.48 374.78 141.49 366.49 141.15 358.46 141.07 350.42 141.68 342.62 142.98 335.08 144.6 327.54 146.92 320.26 149.9 313.26 153.17 306.25 157.05 299.53 161.5 293.1 166.15 286.67 171.28 280.54 176.82 274.71 182.45 268.86 188.41 263.32 194.64 258.08 200.84 252.8 207.23 247.81 213.78 243.11 220.2 238.35 226.73 233.84 233.35 229.59 239.79 225.23 246.3 221.09 252.88 217.17 259.27 213.09 265.75 209.18 272.32 205.45 278.71 201.51 285.22 197.71 291.87 194.04 298.39 190.15 305.07 186.36 311.94 182.7 318.71 178.81 325.69 175.04 332.91 171.42 340.06 167.59 347.47 163.94 355.14 160.5 362.77 156.93 370.7 153.62 378.91 150.63 387.11 147.6 395.61 144.97 404.44 142.8" stroke-dasharray="4 6" transform="rotate(12.12, 400, 400)" opacity="0.65"></path><path d="M409.77 153.68C418.32 151.63 426.96 150.13 435.69 149.2 444.43 148.44 453.25 148.29 462.13 148.75 471.02 149.43 479.94 150.74 488.87 152.65 497.79 154.81 506.67 157.56 515.46 160.88 524.18 164.43 532.75 168.51 541.09 173.1 549.27 177.87 557.13 183.11 564.58 188.75 571.75 194.54 578.4 200.7 584.43 207.18 590.06 213.75 594.98 220.61 599.09 227.71 602.74 234.86 605.55 242.22 607.47 249.76 608.95 257.31 609.61 265.01 609.46 272.85 609.07 280.67 608.05 288.62 606.51 296.66 605.07 304.69 603.4 312.81 601.65 321.01 600.44 329.19 599.48 337.45 598.93 345.79 599.32 354.1 600.36 362.5 602.12 370.95 605.02 379.39 608.68 387.91 613.06 396.47 618.4 405.02 624.23 413.63 630.35 422.26 636.89 430.9 643.11 439.35 648.77 447.59 654.13 455.82 658.5 463.84 661.72 471.61 664.13 479.35 665.16 486.83 664.78 494.01 663.39 501.15 660.6 507.96 656.51 514.42 651.52 520.8 645.42 526.81 638.37 532.4 630.75 537.91 622.44 542.99 613.64 547.62 604.63 552.16 595.36 556.24 585.99 559.86 576.7 563.4 567.47 566.5 558.38 569.16 549.55 571.8 540.93 574.05 532.54 575.94 524.47 577.9 516.62 579.57 508.97 581 501.61 582.62 494.39 584.09 487.28 585.46 480.38 587.16 473.51 588.87 466.63 590.63 459.89 592.84 453.07 595.18 446.15 597.68 439.29 600.69 432.28 603.9 425.1 607.29 417.94 611.18 410.58 615.22 403.03 619.35 395.48 623.87 387.72 628.38 379.77 632.77 371.82 637.33 363.88 641.51 355.97 645.21 348.07 648.82 340.23 651.79 332.49 654.08 324.79 656.06 317.21 657.24 309.79 657.6 302.44 657.54 295.28 656.61 288.36 654.84 281.53 652.61 274.96 649.56 268.7 645.73 262.54 641.49 256.7 636.54 251.22 630.95 245.84 625.04 240.82 618.58 236.17 611.65 231.6 604.5 227.38 596.97 223.53 589.12 219.69 581.17 216.17 572.97 212.97 564.61 209.69 556.21 206.67 547.68 203.89 539.08 200.94 530.49 198.17 521.86 195.54 513.22 192.67 504.61 189.91 496 187.23 487.42 184.27 478.88 181.39 470.35 178.59 461.86 175.51 453.41 172.55 444.98 169.74 436.6 166.72 428.23 163.93 419.9 161.41 411.61 158.83 403.33 156.63 395.09 154.88 386.9 153.25 378.71 152.21 370.76 151.78 363.06 151.59 355.36 152.08 347.9 153.23 340.71 154.69 333.51 156.82 326.57 159.58 319.9 162.64 313.22 166.3 306.82 170.5 300.7 174.93 294.56 179.83 288.71 185.15 283.14 190.58 277.54 196.36 272.23 202.41 267.19 208.47 262.11 214.74 257.29 221.19 252.73 227.54 248.09 234.03 243.69 240.61 239.52 247.04 235.24 253.56 231.15 260.15 227.26 266.57 223.21 273.07 219.33 279.66 215.59 286.08 211.67 292.61 207.87 299.26 204.2 305.77 200.32 312.43 196.55 319.24 192.9 325.96 189.04 332.87 185.31 339.98 181.73 347.02 177.96 354.29 174.37 361.79 170.99 369.26 167.5 376.98 164.26 384.98 161.34 392.95 158.39 401.21 155.82 409.76 153.69" stroke-dasharray="5 6" transform="rotate(16.16, 400, 400)" opacity="0.66"></path><path d="M414.48 164.57C422.73 162.56 431.04 161.07 439.4 160.12 447.76 159.33 456.17 159.11 464.59 159.47 473 160.03 481.41 161.18 489.76 162.89 498.09 164.84 506.32 167.35 514.41 170.39 522.41 173.66 530.21 177.43 537.72 181.69 545.06 186.13 552.04 191.01 558.58 196.29 564.85 201.72 570.59 207.52 575.71 213.63 580.49 219.84 584.58 226.34 587.93 233.09 590.89 239.89 593.09 246.91 594.51 254.12 595.61 261.35 596 268.74 595.72 276.26 595.3 283.79 594.38 291.44 593.07 299.19 591.93 306.93 590.65 314.77 589.36 322.67 588.61 330.57 588.13 338.54 588.04 346.57 588.82 354.59 590.18 362.67 592.19 370.79 595.2 378.91 598.87 387.07 603.14 395.26 608.26 403.44 613.79 411.66 619.55 419.87 625.68 428.08 631.51 436.09 636.82 443.88 641.9 451.66 646.09 459.21 649.26 466.5 651.74 473.77 652.98 480.77 652.96 487.46 652.05 494.11 649.86 500.45 646.46 506.43 642.24 512.36 636.95 517.92 630.74 523.09 623.95 528.19 616.45 532.9 608.41 537.18 600.09 541.4 591.44 545.21 582.6 548.6 573.74 551.94 564.84 554.89 556 557.46 547.32 560.04 538.77 562.28 530.38 564.21 522.24 566.24 514.28 568.02 506.49 569.6 498.95 571.38 491.55 573.04 484.27 574.62 477.18 576.52 470.16 578.42 463.17 580.38 456.31 582.74 449.43 585.22 442.51 587.82 435.65 590.89 428.71 594.11 421.66 597.47 414.64 601.27 407.49 605.19 400.21 609.15 392.94 613.46 385.51 617.73 377.96 621.88 370.41 626.18 362.9 630.11 355.48 633.59 348.06 637.01 340.73 639.84 333.54 642.03 326.37 643.98 319.34 645.19 312.5 645.65 305.71 645.75 299.13 645.05 292.8 643.58 286.52 641.71 280.52 639.07 274.81 635.7 269.18 631.97 263.86 627.56 258.87 622.54 253.95 617.21 249.36 611.35 245.11 605.02 240.9 598.48 237 591.54 233.43 584.28 229.84 576.88 226.54 569.23 223.5 561.39 220.36 553.48 217.44 545.42 214.72 537.27 211.83 529.1 209.07 520.87 206.45 512.6 203.58 504.35 200.8 496.08 198.1 487.82 195.13 479.59 192.22 471.37 189.4 463.18 186.32 455.02 183.36 446.88 180.54 438.79 177.54 430.72 174.75 422.68 172.23 414.7 169.67 406.72 167.46 398.79 165.69 390.93 164.03 383.06 162.93 375.44 162.43 368.07 162.15 360.7 162.51 353.57 163.51 346.7 164.81 339.82 166.74 333.19 169.29 326.83 172.12 320.45 175.54 314.34 179.49 308.49 183.67 302.62 188.32 297.01 193.39 291.68 198.59 286.3 204.15 281.18 209.99 276.32 215.87 271.41 221.99 266.73 228.29 262.29 234.54 257.77 240.93 253.45 247.43 249.35 253.83 245.13 260.32 241.09 266.88 237.22 273.3 233.2 279.81 229.33 286.39 225.61 292.83 221.7 299.36 217.91 305.99 214.24 312.51 210.38 319.14 206.63 325.91 203.01 332.59 199.19 339.43 195.5 346.43 191.97 353.38 188.27 360.52 184.75 367.86 181.45 375.17 178.04 382.7 174.88 390.47 172.04 398.22 169.17 406.22 166.66 414.47 164.57" stroke-dasharray="10 1" transform="rotate(20.200000000000003, 400, 400)" opacity="0.80"></path><path d="M418.29 175.46C426.21 173.49 434.16 172.02 442.11 171.06 450.07 170.24 458.01 169.96 465.93 170.22 473.83 170.66 481.67 171.66 489.41 173.19 497.11 174.93 504.67 177.2 512.03 179.98 519.29 182.96 526.3 186.43 532.99 190.36 539.52 194.46 545.65 198.99 551.33 203.91 556.76 208.97 561.67 214.39 565.99 220.12 570 225.96 573.38 232.08 576.09 238.45 578.49 244.88 580.22 251.54 581.28 258.38 582.11 265.26 582.34 272.31 582.03 279.49 581.68 286.69 580.93 294.01 579.9 301.42 579.09 308.85 578.21 316.36 577.37 323.94 577.07 331.52 577.03 339.17 577.36 346.86 578.49 354.56 580.13 362.3 582.33 370.06 585.42 377.83 589.06 385.63 593.22 393.43 598.11 401.23 603.34 409.04 608.74 416.83 614.48 424.61 619.92 432.19 624.9 439.53 629.69 446.87 633.69 453.96 636.79 460.8 639.3 467.61 640.71 474.15 640.99 480.39 640.5 486.59 638.84 492.48 636.07 498.04 632.56 503.55 628.05 508.71 622.64 513.51 616.68 518.26 609.99 522.64 602.74 526.63 595.16 530.59 587.19 534.17 578.95 537.38 570.63 540.58 562.19 543.43 553.71 545.94 545.31 548.49 536.97 550.75 528.72 552.74 520.65 554.85 512.71 556.75 504.91 558.48 497.3 560.41 489.82 562.25 482.46 564.02 475.26 566.09 468.14 568.17 461.1 570.29 454.17 572.78 447.25 575.37 440.35 578.05 433.51 581.14 426.64 584.35 419.72 587.67 412.83 591.37 405.87 595.15 398.84 598.95 391.82 603.05 384.71 607.09 377.52 610.99 370.33 615.04 363.24 618.72 356.26 622 349.29 625.21 342.45 627.89 335.76 630 329.09 631.88 322.58 633.11 316.28 633.65 310.01 633.88 303.96 633.39 298.16 632.19 292.4 630.63 286.91 628.37 281.7 625.44 276.54 622.17 271.67 618.27 267.11 613.8 262.59 609.03 258.37 603.75 254.46 598.01 250.55 592.06 246.92 585.71 243.58 579.04 240.19 572.22 237.04 565.13 234.12 557.82 231.08 550.44 228.23 542.89 225.55 535.21 222.68 527.51 219.93 519.71 217.29 511.86 214.41 504.02 211.61 496.13 208.88 488.24 205.89 480.36 202.97 472.48 200.13 464.63 197.05 456.79 194.09 448.98 191.27 441.21 188.3 433.45 185.53 425.73 183.02 418.06 180.48 410.4 178.28 402.79 176.5 395.25 174.82 387.71 173.68 380.41 173.1 373.36 172.74 366.3 172.98 359.49 173.83 352.92 174.96 346.34 176.7 340.01 179.02 333.92 181.62 327.83 184.79 321.97 188.47 316.37 192.38 310.74 196.76 305.36 201.56 300.22 206.5 295.05 211.8 290.1 217.41 285.39 223.07 280.62 228.98 276.07 235.1 271.73 241.19 267.3 247.45 263.07 253.83 259.02 260.14 254.86 266.55 250.86 273.04 247.01 279.43 243.03 285.9 239.17 292.44 235.46 298.87 231.57 305.39 227.8 311.98 224.15 318.48 220.32 325.08 216.61 331.78 213.02 338.41 209.25 345.17 205.62 352.07 202.15 358.92 198.53 365.93 195.09 373.11 191.87 380.25 188.55 387.59 185.49 395.12 182.72 402.63 179.94 410.35 177.5 418.28 175.46" stroke-dasharray="8 0" transform="rotate(24.24, 400, 400)" opacity="0.09"></path><path d="M420.96 186.35C428.54 184.43 436.09 182.98 443.6 182.01 451.11 181.17 458.57 180.84 465.95 181 473.3 181.34 480.56 182.19 487.66 183.54 494.72 185.09 501.58 187.13 508.22 189.65 514.75 192.35 521 195.52 526.9 199.12 532.65 202.89 538 207.07 542.89 211.61 547.57 216.3 551.74 221.34 555.36 226.68 558.73 232.13 561.53 237.86 563.72 243.83 565.68 249.88 567.07 256.15 567.88 262.61 568.55 269.11 568.74 275.78 568.49 282.59 568.26 289.43 567.75 296.39 567.03 303.45 566.57 310.52 566.09 317.68 565.68 324.9 565.8 332.14 566.17 339.43 566.88 346.77 568.31 354.1 570.19 361.48 572.54 368.87 575.67 376.27 579.28 383.68 583.3 391.08 587.96 398.49 592.88 405.88 597.93 413.24 603.28 420.6 608.36 427.74 613 434.64 617.5 441.54 621.31 448.2 624.3 454.6 627.58 464.03 628.15 481.43 625.37 489.35 622.51 494.49 618.72 499.3 614.08 503.77 608.91 508.21 603.03 512.31 596.56 516.07 589.75 519.8 582.51 523.21 574.94 526.28 567.23 529.37 559.33 532.15 551.33 534.64 543.33 537.18 535.32 539.48 527.34 541.55 519.47 543.74 511.68 545.76 503.98 547.64 496.43 549.72 488.98 551.72 481.64 553.66 474.44 555.89 467.31 558.11 460.27 560.37 453.33 562.96 446.44 565.62 439.59 568.36 432.8 571.46 426.02 574.64 419.24 577.89 412.49 581.48 405.71 585.11 398.92 588.74 392.14 592.63 385.32 596.44 378.48 600.1 371.63 603.9 364.92 607.35 358.36 610.41 351.81 613.43 345.4 615.96 339.18 617.96 329.95 620.4 312.54 621.79 304.43 620.67 296.61 618.44 282.32 610.4 275.89 604.72 271.71 600.49 267.79 595.77 264.15 590.59 260.49 585.22 257.07 579.46 253.9 573.36 250.66 567.13 247.63 560.6 244.79 553.85 241.82 547.01 239 539.99 236.33 532.82 233.46 525.61 230.7 518.28 228.04 510.88 225.14 503.48 222.31 496.01 219.55 488.52 216.55 481.04 213.61 473.54 210.76 466.05 207.7 458.58 204.75 451.11 201.95 443.69 199.01 436.27 196.27 428.88 193.79 421.55 191.27 414.22 189.09 406.94 187.3 399.73 185.62 392.52 184.44 385.54 183.8 378.8 183.36 372.05 183.49 365.54 184.19 359.26 185.15 352.97 186.7 346.91 188.8 341.09 191.17 335.25 194.07 329.64 197.47 324.26 201.1 318.85 205.19 313.67 209.69 308.71 214.35 303.71 219.37 298.92 224.69 294.35 230.1 289.71 235.77 285.26 241.65 281.01 247.55 276.67 253.62 272.51 259.83 268.51 266 264.4 272.28 260.44 278.66 256.62 284.96 252.67 291.35 248.84 297.81 245.14 304.19 241.29 310.64 237.55 317.17 233.92 323.61 230.14 330.14 226.47 336.76 222.92 343.32 219.23 349.98 215.67 356.76 212.26 363.49 208.73 370.35 205.39 377.34 202.25 384.31 199.03 391.43 196.07 398.7 193.38 405.95 190.69 413.37 188.33 420.95 186.35" stroke-dasharray="0 4" transform="rotate(28.28, 400, 400)" opacity="0.26"></path><path d="M422.33 197.24C429.53 195.37 436.66 193.96 443.71 192.98 450.76 192.12 457.71 191.74 464.53 191.82 471.33 192.06 477.99 192.77 484.45 193.96 490.87 195.31 497.06 197.13 502.99 199.4 508.83 201.84 514.36 204.71 519.53 207.99 524.57 211.43 529.2 215.25 533.4 219.43 539.19 226.07 548.01 241.06 550.98 249.29 552.63 254.93 553.78 260.8 554.47 266.85 555.08 272.95 555.3 279.22 555.18 285.64 555.14 292.08 554.89 298.65 554.5 305.32 554.4 312.01 554.31 318.79 554.32 325.64 554.82 332.49 555.56 339.41 556.6 346.36 558.28 353.32 560.35 360.31 562.82 367.31 565.97 374.31 569.5 381.33 573.37 388.32 577.79 395.32 582.41 402.29 587.13 409.22 592.1 416.15 596.81 422.87 601.13 429.35 605.35 435.82 608.94 442.06 611.82 448.04 615.11 456.86 616.43 473.11 614.36 480.49 612.1 485.3 608.96 489.8 605.04 493.99 600.62 498.16 595.52 502.03 589.83 505.6 583.8 509.15 577.31 512.42 570.45 515.39 563.42 518.39 556.14 521.13 548.69 523.62 541.2 526.18 533.63 528.52 526.03 530.68 518.48 532.96 510.96 535.1 503.49 537.11 496.12 539.32 488.82 541.46 481.61 543.55 474.49 545.9 467.45 548.25 460.5 550.61 453.63 553.27 446.82 555.99 440.07 558.75 433.38 561.83 426.72 564.96 420.1 568.13 413.51 571.6 406.93 575.08 400.37 578.52 393.83 582.2 387.29 585.78 380.77 589.22 374.25 592.76 367.89 595.98 361.72 598.84 355.54 601.67 349.54 604.05 343.73 605.94 335.13 608.3 319 609.89 311.51 609.04 304.28 607.22 291.07 600.31 285.1 595.32 279.35 589.5 268.99 575.36 264.32 567.24 261.18 561.57 258.22 555.62 255.43 549.43 252.49 543.14 249.69 536.66 247.01 530.01 244.14 523.32 241.35 516.49 238.66 509.57 235.74 502.63 232.88 495.62 230.1 488.56 227.09 481.5 224.15 474.42 221.3 467.32 218.26 460.24 215.34 453.15 212.56 446.09 209.66 439.03 206.97 432 204.52 425.02 202.04 418.04 199.89 411.1 198.11 404.22 196.42 397.34 195.22 390.68 194.52 384.25 194.01 377.81 194.03 371.58 194.59 365.58 195.4 359.57 196.75 353.77 198.62 348.19 200.75 342.59 203.39 337.21 206.5 332.04 209.84 326.83 213.62 321.83 217.81 317.04 222.15 312.2 226.86 307.56 231.88 303.1 236.99 298.58 242.38 294.24 247.99 290.07 253.64 285.81 259.47 281.71 265.46 277.77 271.44 273.71 277.54 269.8 283.75 266.01 289.91 262.1 296.16 258.31 302.49 254.64 308.76 250.83 315.1 247.13 321.51 243.55 327.86 239.82 334.29 236.21 340.78 232.73 347.23 229.11 353.76 225.63 360.38 222.31 366.96 218.88 373.65 215.63 380.43 212.59 387.19 209.49 394.07 206.62 401.05 204.04 408.03 201.44 415.12 199.16 422.32 197.24" stroke-dasharray="2 7" transform="rotate(32.32, 400, 400)" opacity="0.63"></path><path d="M422.31 208.12C429.11 206.32 435.8 204.94 442.38 203.97 448.94 203.1 455.37 202.67 461.64 202.68 467.89 202.82 473.95 203.41 479.8 204.44 488.37 206.42 504.04 212.72 510.99 216.98 517.41 221.83 527.99 233.46 532.08 240.14 535.5 247.24 539.99 262.81 541.14 271.16 541.78 276.85 542.1 282.7 542.16 288.7 542.35 294.73 542.39 300.89 542.34 307.15 542.59 313.44 542.88 319.81 543.27 326.25 544.11 332.7 545.17 339.22 546.5 345.76 548.39 352.32 550.61 358.9 553.16 365.5 556.29 372.09 559.73 378.69 563.44 385.27 567.61 391.85 571.94 398.4 576.32 404.91 580.93 411.41 585.29 417.7 589.29 423.77 593.21 429.83 596.59 435.66 599.34 441.25 602.6 449.49 604.52 464.68 603.07 471.59 600.06 478.21 589.64 490.06 582.53 495.3 577.26 498.71 571.52 501.86 565.4 504.77 559.08 507.71 552.46 510.42 545.64 512.93 538.73 515.5 531.69 517.9 524.57 520.14 517.45 522.5 510.31 524.75 503.18 526.89 496.1 529.2 489.05 531.46 482.07 533.68 475.15 536.12 468.3 538.56 461.52 541.01 454.8 543.71 448.14 546.45 441.56 549.21 435.02 552.25 428.53 555.31 422.1 558.39 415.7 561.72 409.34 565.04 403.03 568.3 396.73 571.76 390.47 575.12 384.26 578.33 378.05 581.63 372.02 584.63 366.2 587.28 357.55 591.04 341.26 596.19 333.64 597.45 326.23 597.91 312.55 595.85 306.28 593.32 300.22 589.95 289.19 580.49 284.18 574.53 280.85 570.26 277.7 565.61 274.74 560.63 271.67 555.53 268.76 550.14 265.98 544.5 263.06 538.77 260.26 532.83 257.55 526.72 254.67 520.55 251.86 514.24 249.13 507.82 246.19 501.37 243.32 494.83 240.52 488.23 237.51 481.63 234.58 474.97 231.74 468.3 228.74 461.63 225.85 454.94 223.11 448.27 220.27 441.6 217.62 434.94 215.22 428.32 212.8 421.7 210.68 415.11 208.92 408.57 207.24 402.03 206.02 395.7 205.27 389.57 204.66 380.46 206.27 363.25 208.51 355.13 211.58 347.18 220.35 332.19 225.94 325.14 229.96 320.46 234.33 315.94 239.01 311.6 243.8 307.2 248.86 302.95 254.16 298.86 259.52 294.69 265.07 290.66 270.78 286.77 276.51 282.78 282.38 278.92 288.36 275.18 294.33 271.32 300.39 267.58 306.52 263.95 312.63 260.2 318.81 256.56 325.04 253.03 331.24 249.38 337.51 245.84 343.84 242.43 350.13 238.91 356.48 235.52 362.9 232.3 369.3 228.98 375.77 225.84 382.3 222.9 388.83 219.92 395.43 217.16 402.1 214.67 408.76 212.18 415.5 209.98 422.3 208.13" stroke-dasharray="2 5" transform="rotate(36.36, 400, 400)" opacity="0.12"></path><path d="M420.9 219.01C427.28 217.28 433.52 215.93 439.61 214.97 445.69 214.1 451.61 213.63 457.34 213.57 468.72 213.82 479.24 215.73 488.65 219.19 497.78 223.19 505.61 228.69 511.95 235.49 517.87 242.75 522.25 251.19 525.05 260.57 527.69 270.26 529.09 280.76 529.53 291.84 530.6 303.09 531.46 314.82 532.53 326.83 535.26 338.91 538.89 351.22 543.55 363.55 546.64 369.73 549.97 375.91 553.5 382.06 557.42 388.22 561.46 394.35 565.51 400.43 569.77 406.51 573.79 412.39 577.47 418.06 581.11 423.72 584.26 429.17 586.87 434.38 591.23 444.8 592.81 454.29 591.51 462.78 588.51 471.25 582.73 478.75 574.63 485.28 565.28 491.88 554.22 497.64 542.04 502.61 529.41 507.9 516.19 512.65 502.79 516.98 489.44 521.96 476.12 526.8 463.04 531.55 450.12 537.22 437.41 542.96 425 548.66 418.82 551.84 412.71 554.99 406.66 558.07 400.62 561.32 394.64 564.46 388.73 567.44 382.81 570.51 377.11 573.28 371.6 575.74 366.09 578.19 360.79 580.26 355.69 581.94 345.47 584.98 336.07 586.18 327.56 585.49 318.97 584.08 311.21 580.72 304.31 575.59 297.2 569.75 290.8 562.31 285.07 553.55 278.91 544.31 273.2 533.99 267.91 522.89 261.94 511.57 256.22 499.67 250.78 487.44 244.65 475.15 238.85 462.63 233.59 450.09 230.82 443.83 228.23 437.56 225.89 431.31 223.53 425.06 221.46 418.84 219.72 412.64 218.07 406.45 216.84 400.44 216.05 394.62 215.41 388.79 215.25 383.14 215.55 377.67 216.75 366.71 219.87 356.44 224.74 346.89 230.39 337.22 237.62 328.18 246.13 319.78 255.12 311.15 265.12 303.05 275.87 295.49 286.76 287.57 298.19 280.08 309.98 273.06 321.71 265.6 333.75 258.56 345.96 252.03 358.1 245.11 370.46 238.76 382.97 233.18 389.22 230.32 395.51 227.68 401.83 225.29 408.15 222.9 414.51 220.8 420.89 219.02" stroke-dasharray="6 4" transform="rotate(40.400000000000006, 400, 400)" opacity="0.34"></path><path d="M418.2 229.9C430.08 226.63 441.31 224.84 451.75 224.51 462.1 224.58 471.54 226.19 479.88 229.23 487.99 232.74 494.88 237.64 500.41 243.76 505.67 250.29 509.59 257.94 512.2 266.48 514.8 275.32 516.43 284.94 517.33 295.14 518.92 305.51 520.4 316.36 522.11 327.49 525.31 338.7 529.24 350.14 533.99 361.61 540.41 373.12 547.47 384.62 554.71 395.94 562.64 407.26 569.37 417.84 574.41 427.58 578.64 437.3 580.43 446.18 579.71 454.17 577.56 462.16 572.92 469.31 566.12 475.6 558.18 482 548.58 487.68 537.78 492.69 526.46 498.01 514.43 502.89 502.07 507.38 489.65 512.47 477.13 517.41 464.74 522.23 452.45 527.85 440.31 533.45 428.46 538.95 416.68 545.16 405.12 551.12 393.9 556.55 382.67 562.27 372.25 566.79 362.66 569.96 353.02 572.84 344.18 574.05 336.15 573.59 328.02 572.53 320.65 569.72 314.02 565.29 307.16 560.26 300.91 553.74 295.23 545.97 289.12 537.77 283.4 528.52 278.04 518.48 272.07 508.22 266.34 497.34 260.89 486.08 254.85 474.75 249.15 463.14 244 451.44 238.57 439.74 233.97 427.98 230.53 416.31 227.38 404.64 225.9 393.59 226.1 383.2 227 372.78 229.68 362.96 233.99 353.79 239.01 344.5 245.53 335.76 253.29 327.6 261.53 319.22 270.79 311.31 280.8 303.9 291.01 296.17 301.8 288.84 312.95 281.95 324.13 274.7 335.62 267.85 347.25 261.52 358.87 254.86 370.66 248.77 382.51 243.42 394.36 237.94 406.3 233.35 418.18 229.9" stroke-dasharray="10 5" transform="rotate(44.44, 400, 400)" opacity="0.98"></path><path d="M414.36 240.79C425.35 237.66 435.64 235.9 445.1 235.48 454.48 235.41 462.95 236.74 470.36 239.37 477.62 242.43 483.74 246.75 488.66 252.21 493.43 258.04 497.07 264.9 499.63 272.62 502.31 280.61 504.24 289.36 505.62 298.67 507.7 308.14 509.74 318.08 512 328.32 515.56 338.64 519.71 349.19 524.48 359.8 530.63 370.43 537.24 381.08 543.9 391.58 551.15 402.08 557.31 411.9 561.97 420.98 566.02 430.04 567.95 438.36 567.7 445.9 566.27 453.45 562.62 460.27 557.02 466.36 550.4 472.57 542.18 478.18 532.76 483.21 522.8 488.54 512.03 493.49 500.81 498.1 489.45 503.24 477.87 508.22 466.31 513.05 454.79 518.56 443.36 523.99 432.16 529.24 421 535.09 410.06 540.65 399.44 545.66 388.82 550.93 378.98 555.08 369.93 557.99 360.82 560.7 352.45 561.91 344.83 561.62 337.08 560.86 330 558.52 323.58 554.73 316.91 550.43 310.76 544.76 305.11 537.92 299.04 530.7 293.31 522.47 287.91 513.46 281.96 504.23 276.25 494.37 270.83 484.09 264.91 473.73 259.35 463.04 254.35 452.2 249.12 441.35 244.68 430.38 241.33 419.44 238.25 408.5 236.71 398.08 236.72 388.24 237.34 378.36 239.59 369.01 243.34 360.22 247.75 351.32 253.55 342.9 260.54 334.99 268 326.89 276.46 319.21 285.66 311.98 295.11 304.47 305.15 297.34 315.58 290.64 326.08 283.62 336.9 277.01 347.86 270.9 358.84 264.53 369.96 258.72 381.08 253.62 392.22 248.43 403.36 244.08 414.36 240.79" stroke-dasharray="0 3" transform="rotate(48.48, 400, 400)" opacity="0.83"></path><path d="M409.62 251.68C419.72 248.7 429.1 246.98 437.65 246.49 446.14 246.29 453.76 247.37 460.39 249.64 466.92 252.25 472.44 256.04 476.93 260.86 481.36 266.01 484.86 272.12 487.48 279.04 490.31 286.19 492.57 294.07 494.42 302.49 496.95 311.06 499.48 320.1 502.19 329.44 506.01 338.86 510.28 348.51 515 358.24 520.86 368.01 527 377.81 533.1 387.5 539.69 397.18 545.28 406.28 549.56 414.72 553.38 423.15 555.38 430.94 555.49 438.05 554.66 445.19 551.88 451.71 547.33 457.61 541.92 463.63 535.01 469.15 526.91 474.17 518.3 479.48 508.82 484.46 498.8 489.13 488.59 494.25 478.06 499.21 467.45 504 456.82 509.34 446.19 514.56 435.72 519.54 425.29 525.02 415.01 530.17 405.03 534.77 395.03 539.59 385.75 543.38 377.2 546.05 368.58 548.56 360.64 549.74 353.36 549.6 345.95 549.07 339.11 547.14 332.85 543.91 326.34 540.27 320.28 535.37 314.64 529.4 308.62 523.09 302.9 515.83 297.48 507.81 291.59 499.59 285.94 490.72 280.6 481.41 274.84 472.01 269.46 462.25 264.62 452.28 259.62 442.29 255.38 432.14 252.14 421.94 249.15 411.75 247.57 401.98 247.39 392.7 247.75 383.38 249.6 374.51 252.82 366.12 256.62 357.63 261.72 349.56 267.93 341.94 274.59 334.15 282.2 326.73 290.55 319.71 299.17 312.48 308.38 305.59 317.99 299.11 327.72 292.37 337.77 286.03 347.96 280.18 358.19 274.13 368.55 268.62 378.87 263.79 389.22 258.89 399.53 254.79 409.62 251.68" stroke-dasharray="2 3" transform="rotate(52.52, 400, 400)" opacity="0.86"></path><path d="M404.29 262.57C413.5 259.75 422 258.09 429.73 257.54 437.42 257.23 444.28 258.08 450.28 260 456.21 262.22 461.28 265.5 465.47 269.72 469.68 274.21 473.13 279.6 475.9 285.74 478.91 292.08 481.49 299.1 483.78 306.65 486.68 314.34 489.6 322.48 492.65 330.92 496.64 339.44 500.96 348.2 505.55 357.07 511.08 365.96 516.75 374.92 522.29 383.81 528.25 392.71 533.29 401.09 537.18 408.92 540.74 416.74 542.74 424.03 543.12 430.73 542.77 437.47 540.72 443.7 537.1 449.4 532.77 455.22 527.05 460.62 520.21 465.6 512.89 470.84 504.69 475.79 495.89 480.46 486.88 485.51 477.47 490.39 467.86 495.06 458.22 500.19 448.48 505.16 438.83 509.85 429.18 514.94 419.63 519.68 410.29 523.89 400.96 528.27 392.24 531.7 384.16 534.13 376.03 536.44 368.47 537.57 361.5 537.53 354.4 537.19 347.79 535.62 341.66 532.88 335.31 529.81 329.34 525.62 323.73 520.43 317.79 514.97 312.11 508.62 306.73 501.53 300.94 494.27 295.4 486.37 290.19 478 284.63 469.56 279.46 460.72 274.83 451.62 270.08 442.5 266.05 433.17 262.95 423.73 260.06 414.3 258.46 405.19 258.13 396.49 258.26 387.76 259.73 379.39 262.44 371.43 265.66 363.39 270.07 355.7 275.51 348.39 281.36 340.95 288.11 333.84 295.57 327.1 303.31 320.17 311.63 313.57 320.36 307.36 329.23 300.95 338.42 294.92 347.75 289.36 357.16 283.66 366.68 278.46 376.15 273.93 385.65 269.34 395.09 265.5 404.29 262.57" stroke-dasharray="1 8" transform="rotate(56.56, 400, 400)" opacity="0.49"></path><path d="M398.7 273.45C407.02 270.82 414.7 269.22 421.68 268.63 431.74 268.55 448.13 273.73 454.49 278.79 458.56 282.68 462.03 287.38 464.96 292.76 468.16 298.33 471.04 304.53 473.69 311.22 476.89 318.04 480.1 325.3 483.39 332.86 487.44 340.48 491.71 348.37 496.13 356.38 501.29 364.42 506.48 372.55 511.48 380.66 516.83 388.77 521.34 396.46 524.84 403.69 528.11 410.92 530.06 417.71 530.62 424.01 530.63 430.35 529.18 436.28 526.36 441.76 522.97 447.36 518.32 452.61 512.63 457.5 506.52 462.62 499.56 467.48 491.96 472.07 484.15 476.99 475.87 481.72 467.33 486.23 458.72 491.11 449.94 495.78 441.15 500.16 432.35 504.86 423.57 509.19 414.92 513 406.27 516.95 398.13 520.04 390.53 522.22 382.89 524.33 375.72 525.39 369.04 525.42 362.25 525.23 355.87 523.95 349.89 521.65 343.72 519.08 337.86 515.51 332.32 511.05 326.5 506.36 320.93 500.84 315.63 494.63 310.01 488.28 304.63 481.3 299.59 473.85 294.29 466.33 289.37 458.4 284.98 450.17 280.5 441.92 276.7 433.42 273.75 424.76 271 416.09 269.4 407.68 268.94 399.58 268.86 391.46 269.99 383.63 272.22 376.13 274.89 368.57 278.64 361.29 283.32 354.36 288.37 347.31 294.26 340.55 300.83 334.13 307.66 327.56 315.05 321.3 322.85 315.4 330.8 309.35 339.06 303.67 347.5 298.45 356 293.11 364.62 288.26 373.21 284.03 381.82 279.77 390.37 276.2 398.7 273.45" stroke-dasharray="1 8" transform="rotate(60.599999999999994, 400, 400)" opacity="0.60"></path><path d="M393.18 284.34C400.65 281.89 407.56 280.37 413.85 279.75 422.96 279.53 438.1 283.78 444.2 288.09 449.92 293.43 459.68 307.66 464.16 316.24 467.56 322.22 470.95 328.62 474.37 335.32 478.4 342.08 482.55 349.1 486.73 356.28 491.5 363.47 496.21 370.79 500.68 378.14 505.43 385.48 509.43 392.5 512.55 399.13 515.51 405.78 517.35 412.06 518.02 417.96 517.8 426.69 510.71 442.59 504.21 449.87 499.21 454.8 493.39 459.5 486.94 463.96 480.29 468.68 473.14 473.2 465.67 477.49 458.11 482.07 450.32 486.43 442.43 490.47 434.53 494.76 426.56 498.69 418.62 502.11 410.69 505.65 403.16 508.41 396.05 510.35 388.91 512.24 382.15 513.22 375.79 513.3 369.33 513.21 363.2 512.18 357.41 510.25 351.46 508.12 345.77 505.1 340.36 501.28 334.72 497.29 329.31 492.54 324.16 487.15 318.77 481.64 313.63 475.54 308.81 468.97 303.81 462.34 299.18 455.29 295.06 447.92 290.88 440.53 287.33 432.85 284.56 424.97 281.95 417.09 280.37 409.39 279.81 401.92 279.56 394.44 280.38 387.17 282.18 380.18 284.33 373.14 287.45 366.33 291.41 359.81 295.69 353.21 300.74 346.85 306.41 340.8 312.32 334.65 318.78 328.77 325.62 323.24 332.62 317.59 339.93 312.29 347.42 307.43 354.98 302.49 362.67 298.01 370.35 294.1 378.05 290.18 385.71 286.88 393.18 284.34" stroke-dasharray="3 4" transform="rotate(64.64, 400, 400)" opacity="0.09"></path><path d="M388.09 295.23C397.81 292.26 414.82 290.57 422.06 291.79 428.86 293.99 440.39 302.13 445.36 307.86 448.81 311.99 452.07 316.65 455.18 321.74 458.67 326.92 462.14 332.49 465.58 338.37 469.5 344.28 473.44 350.47 477.35 356.83 481.69 363.2 485.92 369.72 489.88 376.31 494.05 382.91 497.55 389.25 500.29 395.3 503.78 404.24 505.47 420.73 503.56 428.3 501.62 433.34 498.72 438.14 494.98 442.68 490.96 447.37 486.18 451.85 480.8 456.11 475.25 460.56 469.18 464.83 462.75 468.85 456.24 473.09 449.44 477.1 442.47 480.78 435.48 484.66 428.35 488.18 421.17 491.22 413.99 494.36 407.09 496.79 400.51 498.5 393.92 500.18 387.6 501.06 381.6 501.16 375.52 501.15 369.7 500.32 364.15 498.7 358.48 496.94 353.02 494.41 347.81 491.17 342.43 487.8 337.26 483.75 332.34 479.12 327.24 474.39 322.38 469.11 317.85 463.37 313.19 457.59 308.89 451.39 305.07 444.86 301.22 438.32 297.94 431.46 295.37 424.38 292.92 417.3 291.39 410.32 290.76 403.51 290.37 396.69 290.91 390.03 292.31 383.59 294 377.11 296.53 370.82 299.82 364.77 303.36 358.66 307.6 352.76 312.42 347.14 317.43 341.44 322.95 336 328.85 330.87 334.88 325.67 341.23 320.8 347.77 316.33 354.37 311.8 361.12 307.71 367.88 304.14 374.67 300.56 381.45 297.56 388.09 295.23" stroke-dasharray="3 3" transform="rotate(68.68, 400, 400)" opacity="0.36"></path><path d="M383.73 306.12C395.41 302.1 405.65 301.04 414.24 302.62 422.98 304.64 430.46 309.26 436.78 315.96 443.91 323.01 450.64 331.91 456.99 342.03 464.77 352.29 472.39 363.56 479.07 375.26 486.42 386.96 491.06 397.97 492.63 407.98 493.44 418.12 490.75 427.51 485.02 435.92 478.47 444.81 469.35 453.05 458.54 460.28 447.48 468.17 435.19 475.09 422.39 480.33 409.59 485.88 397.47 488.76 386.36 489.03 375.04 489 364.38 486.13 354.66 480.77 344.47 475.03 334.97 466.96 326.71 457.11 318.11 447.11 310.97 435.57 306.17 423 301.81 410.43 300.74 398.05 302.64 386.37 305.42 374.6 311.08 363.38 318.91 353.15 327.39 342.72 337.62 333.18 348.76 325.13 360.13 316.95 372.05 310.37 383.73 306.12" stroke-dasharray="3 10" transform="rotate(72.72, 400, 400)" opacity="0.80"></path><path d="M380.39 317.01C390.52 313.41 399.63 312.35 407.53 313.57 415.58 315.1 422.74 318.86 429.01 324.44 435.93 330.26 442.49 337.74 448.59 346.36 455.71 355.07 462.5 364.78 468.27 375.01 474.54 385.24 478.49 395.04 479.9 404.07 480.84 413.22 478.9 421.81 474.41 429.58 469.35 437.69 462.02 445.21 453.05 451.78 443.88 458.81 433.42 464.9 422.23 469.44 411.03 474.21 400.18 476.68 390.02 476.9 379.74 476.95 369.93 474.6 360.92 470.12 351.6 465.38 342.92 458.62 335.4 450.25 327.69 441.76 321.3 431.83 316.98 420.87 313 409.9 311.82 398.98 313.17 388.56 315.17 378.09 319.62 368.04 325.97 358.86 332.82 349.54 341.25 341.03 350.59 333.86 360.11 326.62 370.26 320.79 380.39 317.01" stroke-dasharray="10 8" transform="rotate(76.76, 400, 400)" opacity="0.55"></path><path d="M378.27 327.9C386.91 324.74 394.9 323.73 402.06 324.63 409.33 325.74 416.02 328.74 422.04 333.28 428.53 337.99 434.69 344.14 440.34 351.34 446.68 358.59 452.58 366.79 457.46 375.57 462.7 384.35 465.98 392.89 467.18 400.88 468.12 408.95 466.75 416.62 463.28 423.6 459.44 430.83 453.66 437.53 446.38 443.33 438.94 449.45 430.24 454.7 420.68 458.56 411.11 462.58 401.63 464.63 392.6 464.8 383.5 464.88 374.72 462.97 366.61 459.28 358.31 455.42 350.6 449.85 343.94 442.86 337.18 435.79 331.6 427.42 327.78 418.06 324.23 408.7 323.02 399.27 323.91 390.2 325.24 381.11 328.63 372.33 333.64 364.28 339 356.17 345.76 348.76 353.4 342.51 361.18 336.24 369.63 331.19 378.27 327.9" stroke-dasharray="3 2" transform="rotate(80.80000000000001, 400, 400)" opacity="0.73"></path><path d="M377.5 338.78C384.68 336.09 391.53 335.16 397.84 335.8 404.24 336.57 410.28 338.89 415.81 342.49 421.65 346.2 427.2 351.12 432.22 356.97 437.68 362.85 442.65 369.59 446.65 376.92 450.91 384.25 453.53 391.49 454.51 398.35 455.35 405.27 454.38 411.9 451.74 417.97 448.88 424.2 444.42 429.96 438.66 434.93 432.79 440.1 425.76 444.49 417.84 447.67 409.92 450.96 401.91 452.62 394.16 452.74 386.39 452.81 378.81 451.27 371.77 448.29 364.65 445.21 358.03 440.72 352.32 435.03 346.59 429.3 341.86 422.43 338.59 414.67 335.51 406.91 334.33 399.01 334.85 391.37 335.66 383.72 338.13 376.29 341.95 369.47 345.99 362.62 351.24 356.36 357.31 351.09 363.47 345.82 370.31 341.57 377.5 338.78" stroke-dasharray="6 1" transform="rotate(84.84, 400, 400)" opacity="0.86"></path><path d="M378.12 349.67C389.64 345.35 400.83 346.61 410.25 352.05 420.42 357.72 429.75 367.25 435.85 379.02 442.56 390.79 443.77 402.65 439.92 412.63 435.64 422.98 426.45 431.85 413.9 436.78 401.34 442 388.03 441.85 376.47 437.22 364.82 432.41 354.83 423.15 349.4 410.8 344.46 398.45 345.46 385.49 350.91 374.45 356.86 363.39 366.6 354.25 378.12 349.67" stroke-dasharray="5 0" transform="rotate(88.88, 400, 400)" opacity="0.81"></path><path d="M380.11 360.56C388.79 357.23 397.64 358.02 405.26 361.93 413.27 365.95 420.49 372.93 425.04 381.8 429.92 390.66 430.76 399.78 427.96 407.53 425 415.46 418.4 422.21 409.09 425.89 399.78 429.73 389.66 429.57 380.8 426.13 371.96 422.61 364.37 415.79 360.2 406.59 356.32 397.38 356.76 387.62 360.5 379.27 364.48 370.94 371.43 364.04 380.11 360.56" stroke-dasharray="8 8" transform="rotate(92.92, 400, 400)" opacity="0.65"></path><path d="M383.33 371.45C395 366.97 408.42 373.28 414.23 385.17 420.63 397.05 415.97 410.22 403.72 415 391.45 420.06 376.76 414.34 371.01 402.15 365.78 389.95 371.66 376.19 383.33 371.45" stroke-dasharray="6 2" transform="rotate(96.96, 400, 400)" opacity="0.70"></path></g></svg>